<svg xmlns="http://www.w3.org/2000/svg" viewBox="0 0 128 128">
  <path d="M121.19 34.42l-7.56 12.5c-1.26 2.08-1.28 4.66-.04 6.76l6.5 11.09c1.36 2.32.55 5.3-1.77 6.66l-11.88 6.98c-2.17 1.28-3.48 3.63-3.48 6.16v11.86c0 2.68-2.17 4.85-4.85 4.85h-13.76c-2.53 0-4.88 1.31-6.16 3.48l-6.98 11.88c-1.36 2.32-4.34 3.13-6.66 1.77l-11.09-6.5c-2.1-1.24-4.68-1.22-6.76.04l-12.5 7.56c-2.35 1.43-5.39.67-6.82-1.68l-7.33-12.05c-1.28-2.1-3.61-3.38-6.1-3.38H7.18c-2.68 0-4.85-2.17-4.85-4.85V76.14c0-2.49-1.28-4.82-3.38-6.1L-13.1 62.71c-2.35-1.43-3.11-4.47-1.68-6.82l7.56-12.5c1.26-2.08 1.28-4.66.04-6.76l-6.5-11.09c-1.36-2.32-.55-5.3 1.77-6.66l11.88-6.98c2.17-1.28 3.48-3.63 3.48-6.16V-4.04c0-2.68 2.17-4.85 4.85-4.85h13.76c2.53 0 4.88-1.31 6.16-3.48l6.98-11.88c1.36-2.32 4.34-3.13 6.66-1.77l11.09 6.5c2.1 1.24 4.68 1.22 6.76-.04l12.5-7.56c2.35-1.43 5.39-.67 6.82 1.68l7.33 12.05c1.28 2.1 3.61 3.38 6.1 3.38h15.43c2.68 0 4.85 2.17 4.85 4.85v13.76c0 2.49 1.28 4.82 3.38 6.1l12.05 7.33c2.35 1.43 3.11 4.47 1.68 6.82z" fill="#d00000"/>
</svg>
