<svg xmlns="http://www.w3.org/2000/svg" viewBox="0 0 128 128">
  <defs>
    <linearGradient id="pandas-a" gradientUnits="userSpaceOnUse" x1="21.17" y1="116.24" x2="106.83" y2="11.76">
      <stop offset="0" stop-color="#130754"/>
      <stop offset="1" stop-color="#ffb91c"/>
    </linearGradient>
  </defs>
  <rect width="128" height="128" fill="url(#pandas-a)" rx="6"/>
  <g fill="#fff">
    <path d="M30.91 84.66v21.25h-8.27V62.8h8.27v12.94c2.76-2.23 6.2-3.34 10.33-3.34 4.92 0 8.79 1.52 11.63 4.57 2.84 3.05 4.26 7.24 4.26 12.57 0 5.34-1.42 9.53-4.26 12.58-2.84 3.05-6.71 4.57-11.63 4.57-4.13 0-7.57-1.11-10.33-3.34zm0-5.72c1.86 1.46 4.14 2.19 6.85 2.19 2.98 0 5.32-1.04 7.01-3.12 1.69-2.08 2.54-4.91 2.54-8.48 0-3.56-.85-6.39-2.54-8.47-1.69-2.08-4.03-3.12-7.01-3.12-2.71 0-4.99.73-6.85 2.19v18.81z"/>
    <path d="M79.33 105.91c-5.39 0-9.63-1.49-12.71-4.46-3.08-2.97-4.62-7.01-4.62-12.11 0-5.1 1.54-9.14 4.62-12.11 3.08-2.97 7.32-4.46 12.71-4.46 5.39 0 9.63 1.49 12.71 4.46 3.08 2.97 4.62 7.01 4.62 12.11 0 5.1-1.54 9.14-4.62 12.11-3.08 2.97-7.32 4.46-12.71 4.46zm0-6.45c2.98 0 5.31-1.04 6.99-3.11 1.68-2.07 2.52-4.89 2.52-8.46 0-3.57-.84-6.39-2.52-8.46-1.68-2.07-4.01-3.11-6.99-3.11-2.98 0-5.31 1.04-6.99 3.11-1.68 2.07-2.52 4.89-2.52 8.46 0 3.57.84 6.39 2.52 8.46 1.68 2.07 4.01 3.11 6.99 3.11z"/>
  </g>
</svg>
